<svg xmlns="http://www.w3.org/2000/svg" viewBox="0 0 103.55 36.3"><path d="M16.8,18.81,19.36,22H17.23l-1.75-2.22a8.86,8.86,0,0,1-4.76,1.3,8.81,8.81,0,0,1-6.46-2.63,8.61,8.61,0,0,1-2.63-6.35,9.25,9.25,0,0,1,1.2-4.61A8.74,8.74,0,0,1,6.12,4.21,8.93,8.93,0,0,1,10.68,3a8.84,8.84,0,0,1,6.46,2.62,8.77,8.77,0,0,1,2.63,6.44A8.88,8.88,0,0,1,19,15.72,9.43,9.43,0,0,1,16.8,18.81Zm-1.07-1.35A7.24,7.24,0,0,0,18,12.06,7.31,7.31,0,0,0,17,8.34a7.13,7.13,0,0,0-2.69-2.65,7.19,7.19,0,0,0-7.3,0A7.11,7.11,0,0,0,4.37,8.37a7.5,7.5,0,0,0-1,3.77,7,7,0,0,0,2.12,5.19,7,7,0,0,0,5.12,2.11,7.3,7.3,0,0,0,3.75-1l-3.84-4.88h2.09Z" transform="translate(-0.85 -2.89)" style="fill:#8e7b5c;stroke:#8e7b5c;stroke-miterlimit:10;stroke-width:0.25px"/><path d="M32.93,3a9,9,0,0,1,6.56,2.62,8.71,8.71,0,0,1,2.63,6.43,8.73,8.73,0,0,1-2.63,6.42,8.71,8.71,0,0,1-6.42,2.64,8.83,8.83,0,0,1-6.47-2.63A8.61,8.61,0,0,1,24,12.14a9.18,9.18,0,0,1,1.2-4.6A8.92,8.92,0,0,1,32.93,3ZM33,4.69a7,7,0,0,0-3.63,1A7.25,7.25,0,0,0,26.7,8.37a7.5,7.5,0,0,0-1,3.77,7,7,0,0,0,2.13,5.19A7,7,0,0,0,33,19.44a7.37,7.37,0,0,0,3.71-1,7,7,0,0,0,2.67-2.66,7.58,7.58,0,0,0,1-3.76,7.4,7.4,0,0,0-1-3.71A7.52,7.52,0,0,0,33,4.69Z" transform="translate(-0.85 -2.89)" style="fill:#8e7b5c;stroke:#8e7b5c;stroke-miterlimit:10;stroke-width:0.25px"/><path d="M47.06,20.69V3.45h.37L58.91,16.66V3.45H60.6V20.69h-.38L48.84,7.63V20.69Z" transform="translate(-0.85 -2.89)" style="fill:#8e7b5c;stroke:#8e7b5c;stroke-miterlimit:10;stroke-width:0.25px"/><path d="M73.31,3.45l8,17.24H79.49L76.77,15H69.35l-2.69,5.68H64.74L72.88,3.45Zm-.22,3.66-3,6.24H76Z" transform="translate(-0.85 -2.89)" style="fill:#8e7b5c;stroke:#8e7b5c;stroke-miterlimit:10;stroke-width:0.25px"/><path d="M99.93,18.81,102.49,22h-2.13l-1.75-2.22a9.3,9.3,0,0,1-11.22-1.33,8.61,8.61,0,0,1-2.64-6.35A9.26,9.26,0,0,1,86,7.53a8.74,8.74,0,0,1,3.29-3.32,9.27,9.27,0,0,1,11,1.42,8.77,8.77,0,0,1,2.63,6.44,8.88,8.88,0,0,1-.73,3.65A9.43,9.43,0,0,1,99.93,18.81Zm-1.07-1.35a7.24,7.24,0,0,0,2.25-5.4,7.31,7.31,0,0,0-1-3.72,7.13,7.13,0,0,0-2.69-2.65,7.19,7.19,0,0,0-7.3,0A7.11,7.11,0,0,0,87.5,8.37a7.5,7.5,0,0,0-1,3.77,7,7,0,0,0,2.12,5.19,7,7,0,0,0,5.12,2.11,7.3,7.3,0,0,0,3.75-1l-3.84-4.88h2.09Z" transform="translate(-0.85 -2.89)" style="fill:#8e7b5c;stroke:#8e7b5c;stroke-miterlimit:10;stroke-width:0.25px"/><path d="M40.55,26.25h1.51c.83,0,1.15.44,1.15.89a.77.77,0,0,1-.44.74.84.84,0,0,1,.54.79,1.07,1.07,0,0,1-1.2,1H40.55ZM42,27.61c.36,0,.5-.15.5-.4s-.19-.38-.48-.38h-.71v.78Zm-.69,1.52H42c.4,0,.58-.17.58-.48s-.18-.46-.59-.46h-.67Z" transform="translate(-0.85 -2.89)" style="fill:#8e7b5c"/><path d="M48.28,28.91,48,29.7h-.73l1.17-3.45h.94l1.22,3.45h-.78l-.29-.79Zm1.1-.61c-.24-.73-.4-1.2-.48-1.51h0c-.08.34-.25.88-.45,1.51Z" transform="translate(-0.85 -2.89)" style="fill:#8e7b5c"/><path d="M54.79,26.25h.73v1.54l1.38-1.54h.89L56.4,27.69l1.44,2H57l-1.06-1.53-.37.35V29.7h-.73Z" transform="translate(-0.85 -2.89)" style="fill:#8e7b5c"/><path d="M62.58,26.25v2.06c0,.66.34.86.71.86s.69-.23.69-.86V26.25h.75v2a1.45,1.45,0,1,1-2.9,0v-2Z" transform="translate(-0.85 -2.89)" style="fill:#8e7b5c"/><path d="M15.57,35.86H16.7c.68,0,1.22.24,1.22,1s-.54,1-1.22,1h-.5v1.25h-.63Zm1.07,1.52c.42,0,.65-.18.65-.54s-.23-.48-.65-.48H16.2v1Zm-.06.33.45-.38,1,1.8h-.71Z" transform="translate(-0.85 -2.89)" style="fill:#8e7b5c"/><path d="M19.06,35.86h2v.53H19.7v.78h1.15v.53H19.7v.89h1.41v.54H19.06Z" transform="translate(-0.85 -2.89)" style="fill:#8e7b5c"/><path d="M22.05,38.71l.37-.43a1.3,1.3,0,0,0,.83.36c.35,0,.53-.15.53-.39s-.2-.33-.49-.45l-.44-.19a.93.93,0,0,1-.66-.87,1,1,0,0,1,1.12-.94,1.43,1.43,0,0,1,1,.42l-.32.4a1.07,1.07,0,0,0-.7-.27c-.29,0-.48.13-.48.35s.24.33.51.44l.43.18a.89.89,0,0,1,.66.88,1.05,1.05,0,0,1-1.19,1A1.71,1.71,0,0,1,22.05,38.71Z" transform="translate(-0.85 -2.89)" style="fill:#8e7b5c"/><path d="M26.06,36.39h-.93v-.53h2.49v.53h-.93v2.74h-.63Z" transform="translate(-0.85 -2.89)" style="fill:#8e7b5c"/><path d="M29.09,35.86h.75l1.05,3.27h-.67l-.48-1.71c-.1-.34-.19-.72-.28-1.07h0c-.09.35-.18.73-.28,1.07l-.48,1.71H28Zm-.41,1.92h1.55v.5H28.68Z" transform="translate(-0.85 -2.89)" style="fill:#8e7b5c"/><path d="M31.69,37.67V35.86h.64v1.86c0,.69.24.92.63.92s.64-.23.64-.92V35.86h.61v1.81c0,1.08-.47,1.52-1.25,1.52S31.69,38.75,31.69,37.67Z" transform="translate(-0.85 -2.89)" style="fill:#8e7b5c"/><path d="M35.5,35.86h1.13c.68,0,1.22.24,1.22,1s-.54,1-1.22,1h-.5v1.25H35.5Zm1.06,1.52c.43,0,.66-.18.66-.54s-.23-.48-.66-.48h-.43v1Zm-.05.33.45-.38,1,1.8h-.71Z" transform="translate(-0.85 -2.89)" style="fill:#8e7b5c"/><path d="M39.59,35.86h.75l1,3.27h-.67l-.48-1.71c-.1-.34-.19-.72-.28-1.07h0c-.09.35-.18.73-.28,1.07l-.48,1.71h-.65Zm-.41,1.92h1.55v.5H39.18Z" transform="translate(-0.85 -2.89)" style="fill:#8e7b5c"/><path d="M42.24,35.86h.65l1,1.76.33.71h0c0-.34-.08-.77-.08-1.14V35.86h.6v3.27h-.65l-1-1.77-.33-.7h0c0,.35.08.76.08,1.13v1.34h-.6Z" transform="translate(-0.85 -2.89)" style="fill:#8e7b5c"/><path d="M46.69,36.39h-.93v-.53h2.49v.53h-.93v2.74h-.63Z" transform="translate(-0.85 -2.89)" style="fill:#8e7b5c"/><path d="M50.51,38.26c0-1,1.52-1.09,1.52-1.75,0-.17-.08-.29-.25-.29s-.33.16-.33.4c0,.55.69,1.29,1.34,1.72a2.26,2.26,0,0,0,.75.33l-.16.52a2.76,2.76,0,0,1-1-.45,3.26,3.26,0,0,1-1.5-2.11.81.81,0,0,1,.85-.83.68.68,0,0,1,.75.71c0,.86-1.41,1.08-1.41,1.72a.49.49,0,0,0,.54.47,1,1,0,0,0,.7-.35,2.25,2.25,0,0,0,.58-1h.58a3.59,3.59,0,0,1-.72,1.33,1.6,1.6,0,0,1-1.22.55A1,1,0,0,1,50.51,38.26Z" transform="translate(-0.85 -2.89)" style="fill:#8e7b5c"/><path d="M56,35.86h1.06c.72,0,1.28.25,1.28,1S57.81,38,57.11,38h-.45v1.17H56Zm1,1.59c.46,0,.68-.19.68-.57s-.24-.52-.7-.52h-.38v1.09Z" transform="translate(-0.85 -2.89)" style="fill:#8e7b5c"/><path d="M59.84,35.86h.75l1,3.27H61l-.47-1.71c-.1-.34-.19-.72-.29-1.07h0c-.08.35-.18.73-.28,1.07l-.47,1.71h-.65Zm-.41,1.92H61v.5H59.43Z" transform="translate(-0.85 -2.89)" style="fill:#8e7b5c"/><path d="M62.85,36.39h-.93v-.53h2.49v.53h-.93v2.74h-.63Z" transform="translate(-0.85 -2.89)" style="fill:#8e7b5c"/><path d="M66.1,36.39h-.93v-.53h2.49v.53h-.93v2.74H66.1Z" transform="translate(-0.85 -2.89)" style="fill:#8e7b5c"/><path d="M68.69,35.86h.64v3.27h-.64Z" transform="translate(-0.85 -2.89)" style="fill:#8e7b5c"/><path d="M70.42,38.71l.37-.43a1.3,1.3,0,0,0,.83.36c.35,0,.53-.15.53-.39s-.2-.33-.49-.45l-.44-.19a.93.93,0,0,1-.66-.87,1,1,0,0,1,1.12-.94,1.43,1.43,0,0,1,1,.42l-.32.4a1.07,1.07,0,0,0-.7-.27c-.29,0-.48.13-.48.35s.23.33.51.44l.43.18a.89.89,0,0,1,.66.88,1.05,1.05,0,0,1-1.19,1A1.71,1.71,0,0,1,70.42,38.71Z" transform="translate(-0.85 -2.89)" style="fill:#8e7b5c"/><path d="M73.57,38.71l.37-.43a1.3,1.3,0,0,0,.84.36c.34,0,.53-.15.53-.39s-.2-.33-.5-.45l-.44-.19a.93.93,0,0,1-.66-.87,1,1,0,0,1,1.12-.94,1.47,1.47,0,0,1,1,.42l-.33.4a1.06,1.06,0,0,0-.7-.27c-.29,0-.48.13-.48.35s.24.33.52.44l.43.18a.9.9,0,0,1,.66.88,1.06,1.06,0,0,1-1.2,1A1.73,1.73,0,0,1,73.57,38.71Z" transform="translate(-0.85 -2.89)" style="fill:#8e7b5c"/><path d="M77,35.86h2v.53H77.67v.78h1.15v.53H77.67v.89h1.41v.54H77Z" transform="translate(-0.85 -2.89)" style="fill:#8e7b5c"/><path d="M80.24,35.86h1.12c.69,0,1.23.24,1.23,1s-.54,1-1.23,1h-.49v1.25h-.63Zm1.06,1.52c.43,0,.66-.18.66-.54s-.23-.48-.66-.48h-.43v1Zm0,.33.45-.38,1,1.8H82Z" transform="translate(-0.85 -2.89)" style="fill:#8e7b5c"/><path d="M83.73,35.86h.64v3.27h-.64Z" transform="translate(-0.85 -2.89)" style="fill:#8e7b5c"/><path d="M85.68,35.86h2v.53H86.31v.78h1.16v.53H86.31v.89h1.41v.54h-2Z" transform="translate(-0.85 -2.89)" style="fill:#8e7b5c"/><line y1="25.63" x2="36.57" y2="25.63" style="fill:#8e7b5c;stroke:#8e7b5c;stroke-miterlimit:10;stroke-width:0.5px"/><line x1="66.88" y1="25.63" x2="103.55" y2="25.63" style="fill:#8e7b5c;stroke:#8e7b5c;stroke-miterlimit:10;stroke-width:0.5px"/></svg>