<svg xmlns="http://www.w3.org/2000/svg" viewBox="0 0 168.37 38.9"><path d="M51.27,17.87l2.56,3.23H51.71L50,18.87a8.89,8.89,0,0,1-4.76,1.3,8.79,8.79,0,0,1-6.46-2.62A8.63,8.63,0,0,1,36.1,11.2a9.16,9.16,0,0,1,1.21-4.62,8.79,8.79,0,0,1,3.28-3.32,9.07,9.07,0,0,1,4.56-1.19,9,9,0,0,1,9.09,9,9,9,0,0,1-.72,3.65A9.61,9.61,0,0,1,51.27,17.87Zm-1.06-1.35a7.26,7.26,0,0,0,2.25-5.41,7.34,7.34,0,0,0-1-3.71,7.16,7.16,0,0,0-2.69-2.66,7.3,7.3,0,0,0-3.66-1,7.34,7.34,0,0,0-6.32,3.68,7.52,7.52,0,0,0-1,3.77A7.06,7.06,0,0,0,40,16.38a7,7,0,0,0,5.13,2.12,7.36,7.36,0,0,0,3.75-1L45,12.62h2.09Z" transform="translate(-3.33 -0.02)" style="fill:#8e7b5c;stroke:#8e7b5c;stroke-miterlimit:10;stroke-width:0.25px"/><path d="M67.41,2.07A8.94,8.94,0,0,1,74,4.68a8.7,8.7,0,0,1,2.64,6.43A8.78,8.78,0,0,1,74,17.54a9.24,9.24,0,0,1-12.9,0,8.66,8.66,0,0,1-2.63-6.35,9.19,9.19,0,0,1,1.2-4.61,8.72,8.72,0,0,1,3.28-3.32A8.81,8.81,0,0,1,67.41,2.07Zm.07,1.67a7.38,7.38,0,0,0-6.3,3.69,7.46,7.46,0,0,0-1,3.76,7,7,0,0,0,2.13,5.19,7,7,0,0,0,5.13,2.12,7.39,7.39,0,0,0,3.72-1,6.94,6.94,0,0,0,2.66-2.66,7.48,7.48,0,0,0,1-3.75,7.25,7.25,0,0,0-1-3.71,7.09,7.09,0,0,0-2.69-2.66A7.36,7.36,0,0,0,67.48,3.74Z" transform="translate(-3.33 -0.02)" style="fill:#8e7b5c;stroke:#8e7b5c;stroke-miterlimit:10;stroke-width:0.25px"/><path d="M81.53,19.74V2.5h.38L93.38,15.71V2.5h1.7V19.74h-.39l-11.37-13v13Z" transform="translate(-3.33 -0.02)" style="fill:#8e7b5c;stroke:#8e7b5c;stroke-miterlimit:10;stroke-width:0.25px"/><path d="M107.78,2.5l8,17.24H114l-2.71-5.67h-7.43l-2.68,5.67H99.22L107.36,2.5Zm-.21,3.66-3,6.24h5.89Z" transform="translate(-3.33 -0.02)" style="fill:#8e7b5c;stroke:#8e7b5c;stroke-miterlimit:10;stroke-width:0.25px"/><path d="M134.4,17.87,137,21.1h-2.12l-1.75-2.23a8.89,8.89,0,0,1-4.76,1.3,8.79,8.79,0,0,1-6.46-2.62,8.63,8.63,0,0,1-2.64-6.35,9.16,9.16,0,0,1,1.21-4.62,8.79,8.79,0,0,1,3.28-3.32,9.07,9.07,0,0,1,4.56-1.19,9,9,0,0,1,9.09,9,9,9,0,0,1-.72,3.65A9.61,9.61,0,0,1,134.4,17.87Zm-1.06-1.35a7.26,7.26,0,0,0,2.25-5.41,7.34,7.34,0,0,0-1-3.71A7.16,7.16,0,0,0,132,4.74a7.3,7.3,0,0,0-3.66-1,7.14,7.14,0,0,0-3.64,1A7.06,7.06,0,0,0,122,7.42a7.52,7.52,0,0,0-1,3.77,7.06,7.06,0,0,0,2.12,5.19,7,7,0,0,0,5.12,2.12,7.37,7.37,0,0,0,3.76-1l-3.84-4.88h2.09Z" transform="translate(-3.33 -0.02)" style="fill:#8e7b5c;stroke:#8e7b5c;stroke-miterlimit:10;stroke-width:0.25px"/><path d="M75,25.31h1.51c.83,0,1.15.43,1.15.88a.8.8,0,0,1-.44.75.82.82,0,0,1,.53.78,1.07,1.07,0,0,1-1.19,1H75Zm1.42,1.36c.35,0,.5-.16.5-.4s-.19-.39-.48-.39h-.71v.79Zm-.69,1.51h.67c.41,0,.59-.17.59-.48s-.18-.46-.59-.46h-.67Z" transform="translate(-3.33 -0.02)" style="fill:#8e7b5c"/><path d="M82.76,28l-.27.8h-.73l1.17-3.45h.94l1.22,3.45H84.3L84,28Zm1.1-.61c-.25-.73-.4-1.19-.48-1.51h0c-.08.34-.26.89-.45,1.51Z" transform="translate(-3.33 -0.02)" style="fill:#8e7b5c"/><path d="M89.26,25.31H90v1.54c.23-.27.94-1.05,1.37-1.54h.9l-1.39,1.43,1.44,2h-.9l-1.06-1.54-.36.35v1.19h-.74Z" transform="translate(-3.33 -0.02)" style="fill:#8e7b5c"/><path d="M97.05,25.31v2.05c0,.66.34.86.72.86s.69-.23.69-.86V25.31h.75v2a1.45,1.45,0,1,1-2.9,0v-2Z" transform="translate(-3.33 -0.02)" style="fill:#8e7b5c"/><path d="M50,34.91h1.13c.69,0,1.23.24,1.23,1s-.54,1-1.23,1h-.49v1.24H50Zm1.07,1.52c.43,0,.66-.18.66-.53s-.23-.48-.66-.48h-.43v1Zm-.06.34.45-.39,1,1.8h-.71Z" transform="translate(-3.33 -0.02)" style="fill:#8e7b5c"/><path d="M53.54,34.91h2v.53H54.17v.78h1.16v.53H54.17v.9h1.41v.53h-2Z" transform="translate(-3.33 -0.02)" style="fill:#8e7b5c"/><path d="M56.52,37.76l.37-.43a1.35,1.35,0,0,0,.84.36c.34,0,.53-.15.53-.39s-.2-.32-.5-.45l-.44-.19a.94.94,0,0,1-.66-.87,1,1,0,0,1,1.12-.94,1.47,1.47,0,0,1,1,.42l-.33.4a1.06,1.06,0,0,0-.7-.27c-.29,0-.48.13-.48.35s.24.33.52.44l.43.18a.9.9,0,0,1,.66.88,1.06,1.06,0,0,1-1.2,1A1.73,1.73,0,0,1,56.52,37.76Z" transform="translate(-3.33 -0.02)" style="fill:#8e7b5c"/><path d="M60.54,35.44h-.93v-.53H62.1v.53h-.93v2.74h-.63Z" transform="translate(-3.33 -0.02)" style="fill:#8e7b5c"/><path d="M63.56,34.91h.75l1.06,3.27h-.68l-.47-1.71c-.1-.34-.19-.72-.29-1.07h0c-.08.35-.18.73-.27,1.07l-.48,1.71h-.65Zm-.4,1.92h1.55v.5H63.16Z" transform="translate(-3.33 -0.02)" style="fill:#8e7b5c"/><path d="M66.17,36.72V34.91h.63v1.86c0,.69.25.92.63.92s.64-.23.64-.92V34.91h.62v1.81c0,1.08-.47,1.52-1.26,1.52S66.17,37.8,66.17,36.72Z" transform="translate(-3.33 -0.02)" style="fill:#8e7b5c"/><path d="M70,34.91H71.1c.69,0,1.23.24,1.23,1s-.54,1-1.23,1h-.49v1.24H70ZM71,36.43c.43,0,.66-.18.66-.53s-.23-.48-.66-.48h-.43v1Zm-.06.34.45-.39,1,1.8h-.71Z" transform="translate(-3.33 -0.02)" style="fill:#8e7b5c"/><path d="M74.06,34.91h.75l1.06,3.27h-.68l-.47-1.71c-.1-.34-.19-.72-.28-1.07h0c-.09.35-.18.73-.28,1.07l-.48,1.71H73Zm-.4,1.92h1.55v.5H73.66Z" transform="translate(-3.33 -0.02)" style="fill:#8e7b5c"/><path d="M76.71,34.91h.66l1,1.77.33.7h0c0-.34-.08-.77-.08-1.14V34.91h.6v3.27h-.65l-1-1.77-.33-.7h0c0,.35.08.76.08,1.13v1.34h-.61Z" transform="translate(-3.33 -0.02)" style="fill:#8e7b5c"/><path d="M81.16,35.44h-.93v-.53h2.5v.53H81.8v2.74h-.64Z" transform="translate(-3.33 -0.02)" style="fill:#8e7b5c"/><path d="M85,37.32c0-1,1.51-1.1,1.51-1.76,0-.16-.07-.29-.25-.29s-.33.16-.33.41c0,.54.7,1.29,1.35,1.71a2.62,2.62,0,0,0,.74.34l-.15.51a2.8,2.8,0,0,1-1-.45,3.23,3.23,0,0,1-1.49-2.11.81.81,0,0,1,.84-.83.68.68,0,0,1,.75.71c0,.86-1.4,1.08-1.4,1.72a.48.48,0,0,0,.54.47,1,1,0,0,0,.7-.34,2.43,2.43,0,0,0,.58-1H88a3.48,3.48,0,0,1-.73,1.33,1.56,1.56,0,0,1-1.21.55A1,1,0,0,1,85,37.32Z" transform="translate(-3.33 -0.02)" style="fill:#8e7b5c"/><path d="M90.5,34.91h1.07c.72,0,1.27.25,1.27,1S92.29,37,91.59,37h-.45v1.17H90.5Zm1,1.59c.46,0,.68-.19.68-.57s-.24-.51-.7-.51h-.38V36.5Z" transform="translate(-3.33 -0.02)" style="fill:#8e7b5c"/><path d="M94.32,34.91h.75l1.05,3.27h-.67L95,36.47l-.28-1.07h0c-.09.35-.18.73-.28,1.07l-.48,1.71h-.64Zm-.41,1.92h1.55v.5H93.91Z" transform="translate(-3.33 -0.02)" style="fill:#8e7b5c"/><path d="M97.32,35.44h-.93v-.53h2.5v.53H98v2.74h-.64Z" transform="translate(-3.33 -0.02)" style="fill:#8e7b5c"/><path d="M100.57,35.44h-.93v-.53h2.5v.53h-.93v2.74h-.64Z" transform="translate(-3.33 -0.02)" style="fill:#8e7b5c"/><path d="M103.17,34.91h.63v3.27h-.63Z" transform="translate(-3.33 -0.02)" style="fill:#8e7b5c"/><path d="M104.89,37.76l.37-.43a1.32,1.32,0,0,0,.84.36c.34,0,.53-.15.53-.39s-.2-.32-.5-.45l-.44-.19a.94.94,0,0,1-.66-.87,1,1,0,0,1,1.12-.94,1.47,1.47,0,0,1,1,.42l-.33.4a1.06,1.06,0,0,0-.7-.27c-.29,0-.48.13-.48.35s.24.33.52.44l.43.18a.9.9,0,0,1,.66.88,1.06,1.06,0,0,1-1.2,1A1.73,1.73,0,0,1,104.89,37.76Z" transform="translate(-3.33 -0.02)" style="fill:#8e7b5c"/><path d="M108.05,37.76l.37-.43a1.3,1.3,0,0,0,.83.36c.35,0,.53-.15.53-.39s-.2-.32-.49-.45l-.44-.19a.92.92,0,0,1-.66-.87,1,1,0,0,1,1.12-.94,1.43,1.43,0,0,1,1,.42l-.32.4a1.07,1.07,0,0,0-.7-.27c-.29,0-.48.13-.48.35s.24.33.51.44l.44.18a.89.89,0,0,1,.65.88,1.05,1.05,0,0,1-1.19,1A1.71,1.71,0,0,1,108.05,37.76Z" transform="translate(-3.33 -0.02)" style="fill:#8e7b5c"/><path d="M111.51,34.91h2v.53h-1.36v.78h1.16v.53h-1.16v.9h1.41v.53h-2Z" transform="translate(-3.33 -0.02)" style="fill:#8e7b5c"/><path d="M114.71,34.91h1.13c.69,0,1.22.24,1.22,1s-.53,1-1.22,1h-.49v1.24h-.64Zm1.07,1.52c.43,0,.66-.18.66-.53s-.23-.48-.66-.48h-.43v1Zm-.06.34.45-.39,1,1.8h-.71Z" transform="translate(-3.33 -0.02)" style="fill:#8e7b5c"/><path d="M118.21,34.91h.63v3.27h-.63Z" transform="translate(-3.33 -0.02)" style="fill:#8e7b5c"/><path d="M120.15,34.91h2v.53h-1.36v.78h1.15v.53h-1.15v.9h1.41v.53h-2Z" transform="translate(-3.33 -0.02)" style="fill:#8e7b5c"/><line x1="32" y1="27.54" x2="68.57" y2="27.54" style="fill:#8e7b5c;stroke:#8e7b5c;stroke-miterlimit:10;stroke-width:0.5px"/><line x1="98.88" y1="27.54" x2="135.55" y2="27.54" style="fill:#8e7b5c;stroke:#8e7b5c;stroke-miterlimit:10;stroke-width:0.5px"/><path d="M9.53,16.36,4,20l5.42,3.2" transform="translate(-3.33 -0.02)" style="fill:none;stroke:#8e7b5c;stroke-miterlimit:10;stroke-width:0.75px"/><line x1="6.13" y1="23.12" x2="6.69" y2="23.45" style="fill:none;stroke:#8e7b5c;stroke-miterlimit:10;stroke-width:0.75px"/><line x1="8.33" y1="14.9" x2="20.44" y2="7.03" style="fill:none;stroke:#8e7b5c;stroke-miterlimit:10;stroke-width:0.75px"/><line x1="9.23" y1="17.06" x2="19.41" y2="10.41" style="fill:none;stroke:#8e7b5c;stroke-miterlimit:10;stroke-width:0.75px"/><line x1="22.78" y1="8.25" x2="26.36" y2="5.9" style="fill:none;stroke:#8e7b5c;stroke-miterlimit:10;stroke-width:0.75px"/><line x1="22.26" y1="5.81" x2="30.68" y2="0.34" style="fill:none;stroke:#8e7b5c;stroke-miterlimit:10;stroke-width:0.75px"/><line x1="28.93" y1="4.22" x2="34.75" y2="0.45" style="fill:none;stroke:#8e7b5c;stroke-miterlimit:10;stroke-width:0.75px"/><line x1="4.66" y1="20.06" x2="6.59" y2="18.76" style="fill:none;stroke:#8e7b5c;stroke-miterlimit:10;stroke-width:0.75px"/><line x1="4.64" y1="19.83" x2="6.64" y2="21.04" style="fill:none;stroke:#8e7b5c;stroke-miterlimit:10;stroke-width:0.75px"/><line x1="8.56" y1="24.56" x2="20.62" y2="31.62" style="fill:none;stroke:#8e7b5c;stroke-miterlimit:10;stroke-width:0.75px"/><line x1="10.08" y1="23" x2="20.22" y2="28.97" style="fill:none;stroke:#8e7b5c;stroke-miterlimit:10;stroke-width:0.75px"/><line x1="22.87" y1="30.48" x2="26.47" y2="32.64" style="fill:none;stroke:#8e7b5c;stroke-miterlimit:10;stroke-width:0.75px"/><line x1="22.46" y1="32.71" x2="32.45" y2="38.58" style="fill:none;stroke:#8e7b5c;stroke-miterlimit:10;stroke-width:0.75px"/><line x1="29.89" y1="34.55" x2="36.54" y2="38.53" style="fill:none;stroke:#8e7b5c;stroke-miterlimit:10;stroke-width:0.75px"/><path d="M165.51,22.57,171,19l-5.42-3.19" transform="translate(-3.33 -0.02)" style="fill:none;stroke:#8e7b5c;stroke-miterlimit:10;stroke-width:0.75px"/><line x1="160.05" y1="23.98" x2="147.96" y2="31.83" style="fill:none;stroke:#8e7b5c;stroke-miterlimit:10;stroke-width:0.75px"/><line x1="159.15" y1="21.82" x2="148.98" y2="28.46" style="fill:none;stroke:#8e7b5c;stroke-miterlimit:10;stroke-width:0.75px"/><line x1="145.62" y1="30.62" x2="142.04" y2="32.97" style="fill:none;stroke:#8e7b5c;stroke-miterlimit:10;stroke-width:0.75px"/><line x1="146.13" y1="33.05" x2="137.72" y2="38.52" style="fill:none;stroke:#8e7b5c;stroke-miterlimit:10;stroke-width:0.75px"/><line x1="139.47" y1="34.65" x2="133.66" y2="38.41" style="fill:none;stroke:#8e7b5c;stroke-miterlimit:10;stroke-width:0.75px"/><line x1="163.72" y1="18.82" x2="161.79" y2="20.12" style="fill:none;stroke:#8e7b5c;stroke-miterlimit:10;stroke-width:0.75px"/><line x1="163.74" y1="19.05" x2="161.74" y2="17.85" style="fill:none;stroke:#8e7b5c;stroke-miterlimit:10;stroke-width:0.75px"/><line x1="159.82" y1="14.33" x2="147.77" y2="7.28" style="fill:none;stroke:#8e7b5c;stroke-miterlimit:10;stroke-width:0.75px"/><line x1="158.3" y1="15.89" x2="148.18" y2="9.93" style="fill:none;stroke:#8e7b5c;stroke-miterlimit:10;stroke-width:0.75px"/><line x1="145.53" y1="8.41" x2="141.93" y2="6.26" style="fill:none;stroke:#8e7b5c;stroke-miterlimit:10;stroke-width:0.75px"/><line x1="145.94" y1="6.19" x2="135.95" y2="0.32" style="fill:none;stroke:#8e7b5c;stroke-miterlimit:10;stroke-width:0.75px"/><line x1="138.51" y1="4.35" x2="131.87" y2="0.37" style="fill:none;stroke:#8e7b5c;stroke-miterlimit:10;stroke-width:0.75px"/></svg>