<?xml version="1.0" encoding="utf-8"?>
<svg xmlns="http://www.w3.org/2000/svg" style="margin: auto;  display: block; shape-rendering: auto;" width="286" height="71" preserveAspectRatio="xMidYMid">
  <style type="text/css">
    text {
    text-anchor: middle;
    font-size: 63px;
    opacity: 0;
    }
  </style>
  <g style="transform-origin: 143px 35.5px; transform: scale(1.75);">
    <g transform="translate(143,35.5)">
      <g transform="translate(0,0)">
        <g class="path" style="transform: rotate(0deg); transform-origin: -59.065px 0.674122px; animation: 1.19048s linear -0.628571s infinite normal forwards running spin-3cd11282-27b4-4a68-8576-d6db928e2752;">
          <path d="M12.55-21.45L12.55-21.45L12.55-21.45Q8.30-21.45 5.27-18.63L5.27-18.63L5.27-18.63Q2.00-15.57 2.00-10.58L2.00-10.58L2.00-10.58Q2.00-5.10 5.84-1.97L5.84-1.97L5.84-1.97Q8.72 0.35 12.45 0.35L12.45 0.35L12.45 0.35Q13.82 0.35 15.29-0.04L15.29-0.04L15.29-0.04Q16.91 2.71 17.65 3.48L17.65 3.48L17.65 3.48Q19.02 4.89 20.57 4.92L20.57 4.92L20.57 4.92Q23.41 4.85 25.21 0.84L25.21 0.84L24.47 0.42L24.47 0.42Q22.61 2.60 20.99 2.64L20.99 2.64L20.99 2.64Q19.55 2.64 17.75 0.42L17.75 0.42L17.75 0.42Q17.51 0.11 16.95-0.63L16.95-0.63L16.95-0.63Q20.88-2.46 22.29-6.64L22.29-6.64L22.29-6.64Q22.92-8.51 22.92-10.65L22.92-10.65L22.92-10.65Q22.92-16.28 18.98-19.30L18.98-19.30L18.98-19.30Q16.17-21.45 12.55-21.45zM12.02-4.18L12.02-4.18L12.02-4.18Q10.02-4.15 8.47-1.93L8.47-1.93L8.47-1.93Q5.52-4.32 5.52-10.58L5.52-10.58L5.52-10.58Q5.52-19.05 10.79-20.29L10.79-20.29L10.79-20.29Q11.64-20.46 12.52-20.46L12.52-20.46L12.52-20.46Q18.18-20.46 19.20-13.82L19.20-13.82L19.20-13.82Q19.41-12.38 19.41-10.72L19.41-10.72L19.41-10.72Q19.37-3.97 16.10-1.69L16.10-1.69L16.10-1.69Q14.03-4.15 12.02-4.18zM12.45-0.63L12.45-0.63L12.45-0.63Q10.65-0.63 9.28-1.37L9.28-1.37L9.28-1.37Q10.62-2.92 11.92-2.95L11.92-2.95L11.92-2.95Q13.32-2.92 14.66-0.98L14.66-0.98L14.66-0.98Q13.68-0.63 12.45-0.63" fill="#290908" stroke="none" stroke-width="none" transform="translate(-72.66998291015625,8.939121948242184)" style="fill: rgb(41, 9, 8);"></path>
        </g>
        <g class="path" style="transform: rotate(0deg); transform-origin: -28.57px -1.61088px; animation: 1.19048s linear -0.471429s infinite normal forwards running spin-3cd11282-27b4-4a68-8576-d6db928e2752;">
          <path d="M44.19-21.45L44.19-21.45L44.19-21.45Q39.97-21.45 36.95-18.67L36.95-18.67L36.95-18.67Q33.64-15.61 33.64-10.69L33.64-10.69L33.64-10.69Q33.64-4.99 37.55-1.90L37.55-1.90L37.55-1.90Q40.39 0.35 44.09 0.35L44.09 0.35L44.09 0.35Q48.23 0.35 51.22-2.46L51.22-2.46L51.22-2.46Q54.56-5.59 54.56-10.55L54.56-10.55L54.56-10.55Q54.56-16.35 50.52-19.37L50.52-19.37L50.52-19.37Q47.78-21.45 44.19-21.45zM44.19-0.63L44.19-0.63L44.19-0.63Q39.09-0.63 37.65-6.08L37.65-6.08L37.65-6.08Q37.16-8.02 37.16-10.55L37.16-10.55L37.16-10.55Q37.16-18.91 42.22-20.25L42.22-20.25L42.22-20.25Q43.10-20.46 44.09-20.46L44.09-20.46L44.09-20.46Q51.01-20.39 51.05-10.69L51.05-10.69L51.05-10.69Q51.05-3.02 46.79-1.16L46.79-1.16L46.79-1.16Q45.60-0.63 44.19-0.63" fill="#290908" stroke="none" stroke-width="none" transform="translate(-72.66998291015625,8.939121948242184)" style="fill: rgb(73, 18, 18);"></path>
        </g>
        <g class="path" style="transform: rotate(0deg); transform-origin: 2.61502px -1.51588px; animation: 1.19048s linear -0.314286s infinite normal forwards running spin-3cd11282-27b4-4a68-8576-d6db928e2752;">
          <path d="M79.31-21.09L79.31-20.18L82.30-20.18L82.30-4.43L68.94-21.09L64.05-21.09L64.05-20.18L66.87-20.18L66.87-0.91L64.05-0.91L64.05 0L71.26 0L71.26 0Q71.26-0.77 70.70-0.88L70.70-0.88L70.70-0.88Q70.52-0.91 70.35-0.91L70.35-0.91L68.27-0.91L68.27-17.19L82.09 0.18L83.71-0.18L83.71-20.18L86.52-20.18L86.52-21.09L79.31-21.09" fill="#290908" stroke="none" stroke-width="none" transform="translate(-72.66998291015625,8.939121948242184)" style="fill: rgb(131, 26, 25);"></path>
        </g>
        <g class="path" style="transform: rotate(0deg); transform-origin: 31.835px -1.60588px; animation: 1.19048s linear -0.157143s infinite normal forwards running spin-3cd11282-27b4-4a68-8576-d6db928e2752;">
          <path d="M107.68 0L115.28 0L115.28 0Q115.28-0.77 114.71-0.88L114.71-0.88L114.71-0.88Q114.54-0.91 114.36-0.91L114.36-0.91L113.17-0.91L105.12-21.09L103.82-21.09L95.94-0.91L93.73-0.91L93.73 0L99.98 0L99.98 0Q99.98-0.77 99.42-0.88L99.42-0.88L99.42-0.88Q99.25-0.91 99.07-0.91L99.07-0.91L97.35-0.91L99.98-7.73L107.33-7.73L109.97-0.91L107.68-0.91L107.68 0zM103.64-17.26L106.95-8.75L100.37-8.75L103.64-17.26" fill="#290908" stroke="none" stroke-width="none" transform="translate(-72.66998291015625,8.939121948242184)" style="fill: rgb(194, 66, 41);"></path>
        </g>
        <g class="path" style="transform: rotate(0deg); transform-origin: 63.07px 0.674122px; animation: 1.19048s linear 0s infinite normal forwards running spin-3cd11282-27b4-4a68-8576-d6db928e2752;">
          <path d="M134.68-21.45L134.68-21.45L134.68-21.45Q130.43-21.45 127.41-18.63L127.41-18.63L127.41-18.63Q124.14-15.57 124.14-10.58L124.14-10.58L124.14-10.58Q124.14-5.10 127.97-1.97L127.97-1.97L127.97-1.97Q130.85 0.35 134.58 0.35L134.58 0.35L134.58 0.35Q135.95 0.35 137.43-0.04L137.43-0.04L137.43-0.04Q139.04 2.71 139.78 3.48L139.78 3.48L139.78 3.48Q141.15 4.89 142.70 4.92L142.70 4.92L142.70 4.92Q145.55 4.85 147.34 0.84L147.34 0.84L146.60 0.42L146.60 0.42Q144.74 2.60 143.12 2.64L143.12 2.64L143.12 2.64Q141.68 2.64 139.89 0.42L139.89 0.42L139.89 0.42Q139.64 0.11 139.08-0.63L139.08-0.63L139.08-0.63Q143.02-2.46 144.42-6.64L144.42-6.64L144.42-6.64Q145.05-8.51 145.05-10.65L145.05-10.65L145.05-10.65Q145.05-16.28 141.12-19.30L141.12-19.30L141.12-19.30Q138.30-21.45 134.68-21.45zM134.16-4.18L134.16-4.18L134.16-4.18Q132.15-4.15 130.61-1.93L130.61-1.93L130.61-1.93Q127.65-4.32 127.65-10.58L127.65-10.58L127.65-10.58Q127.65-19.05 132.93-20.29L132.93-20.29L132.93-20.29Q133.77-20.46 134.65-20.46L134.65-20.46L134.65-20.46Q140.31-20.46 141.33-13.82L141.33-13.82L141.33-13.82Q141.54-12.38 141.54-10.72L141.54-10.72L141.54-10.72Q141.50-3.97 138.23-1.69L138.23-1.69L138.23-1.69Q136.16-4.15 134.16-4.18zM134.58-0.63L134.58-0.63L134.58-0.63Q132.79-0.63 131.41-1.37L131.41-1.37L131.41-1.37Q132.75-2.92 134.05-2.95L134.05-2.95L134.05-2.95Q135.46-2.92 136.79-0.98L136.79-0.98L136.79-0.98Q135.81-0.63 134.58-0.63" fill="#290908" stroke="none" stroke-width="none" transform="translate(-72.66998291015625,8.939121948242184)" style="fill: rgb(221, 132, 55);"></path>
        </g>
      </g>
    </g>
  </g>
  <style id="spin-3cd11282-27b4-4a68-8576-d6db928e2752" data-anikit="">
    @keyframes spin-3cd11282-27b4-4a68-8576-d6db928e2752
    {
    0% {
    animation-timing-function: cubic-bezier(0.5856,0.0703,0.4143,0.9297);
    transform: rotate(0deg);
    }
    100% {
    transform: rotate(360deg);
    }
    }
  </style>
</svg>