<svg xmlns="http://www.w3.org/2000/svg" viewBox="0 0 180.06 146.68">
  <path d="M44.31,3.65H94a55.68,55.68,0,0,0,14.61-2.38,18.06,18.06,0,0,1,5-.83q7.64,0,14.84,12.43a50.34,50.34,0,0,1,7.2,25.56q0,9-5,13.15a13.77,13.77,0,0,1-9,3.11,13.13,13.13,0,0,1-8.67-3.06q-3.67-3-7.25-10.09-3.12-6.42-4.9-8.38a5.67,5.67,0,0,0-4.34-2,5.14,5.14,0,0,0-5,3.21Q89.91,37.61,89.9,45v58q0,8.91,1.7,12.94a12,12,0,0,0,6.4,6.22q5.1,2.37,6.93,4.5a8.65,8.65,0,0,1,1.84,5.85q0,7.45-9.19,11.07t-28.22,3.63q-23.36,0-34.66-4.25-9.53-3.51-9.52-11.38a7.66,7.66,0,0,1,3.39-6.63,60.34,60.34,0,0,1,6.69-2.48,7.56,7.56,0,0,0,5-4.35q1.36-3.21,2.21-12.32.75-8.07,1.41-26.14t.66-31.31Q44.49,39,43.17,35c-.88-2.62-2.32-3.94-4.33-3.94q-3.68,0-7.16,5.8-6.32,10.56-10.36,14c-3.21,2.69-6.31,4-9.33,4A10.19,10.19,0,0,1,3.61,50.7,16.79,16.79,0,0,1,.31,40,43.94,43.94,0,0,1,3,25.86,59.31,59.31,0,0,1,10,11.62Q17.17,1.06,24.14,1.07a17.67,17.67,0,0,1,4.34.62c3.39.76,6.17,1.27,8.34,1.55A59.12,59.12,0,0,0,44.31,3.65Z" transform="translate(-0.31 -0.44)" style="fill:#fff"/>
  <path d="M132.24,134.29a32.53,32.53,0,0,1,3.28.38,10.81,10.81,0,0,0,1.89.22q4.23,0,4.88-7.33.35-4.16.35-23.62c0-2-.37-3.34-1.1-4.11s-2-1.14-4-1.14a16.74,16.74,0,0,0-2,.16,16.88,16.88,0,0,1-1.74.11,3.8,3.8,0,0,1-2.74-1,3.52,3.52,0,0,1-1-2.65,5.17,5.17,0,0,1,1.59-3.48,13.78,13.78,0,0,1,4.43-3,70,70,0,0,1,30-6.56q4.33,0,6.3,1.12a3.81,3.81,0,0,1,2,3.58,3.38,3.38,0,0,1-.64,2.21,8,8,0,0,1-2.59,1.73q-3.09,1.47-3.54,3.61c-.29,1.42-.53,7-.69,16.62q.39,14.66.45,15.7a22.06,22.06,0,0,0,.39,2.89,6,6,0,0,0,2.24,4c1.1.73,3,1.16,5.78,1.31,3.11.15,4.68,1.55,4.68,4.21s-2.21,4.59-6.62,5.47a98.44,98.44,0,0,1-18.92,1.8,83.65,83.65,0,0,1-12-.82,51.63,51.63,0,0,1-11-2.68c-2.56-1-3.83-2.55-3.83-4.59a3.81,3.81,0,0,1,1.24-2.84A4.46,4.46,0,0,1,132.24,134.29Z" transform="translate(-0.31 -0.44)" style="fill:#fff"/>
</svg>