<svg xmlns="http://www.w3.org/2000/svg" viewBox="0 0 182.5 149.65"><path d="M44.31,3.65H94a55.68,55.68,0,0,0,14.61-2.38,18.06,18.06,0,0,1,5-.83q7.64,0,14.84,12.43a50.34,50.34,0,0,1,7.2,25.56q0,9-5,13.15a13.77,13.77,0,0,1-9,3.11,13.13,13.13,0,0,1-8.67-3.06q-3.67-3-7.25-10.09-3.12-6.42-4.9-8.38a5.67,5.67,0,0,0-4.34-2,5.14,5.14,0,0,0-5,3.21Q89.91,37.61,89.9,45v58q0,8.91,1.7,12.94a12,12,0,0,0,6.4,6.22q5.1,2.37,6.93,4.5a8.65,8.65,0,0,1,1.84,5.85q0,7.45-9.19,11.07t-28.22,3.63q-23.36,0-34.66-4.25-9.53-3.51-9.52-11.38a7.66,7.66,0,0,1,3.39-6.63,60.34,60.34,0,0,1,6.69-2.48,7.56,7.56,0,0,0,5-4.35q1.36-3.21,2.21-12.32.75-8.07,1.41-26.14t.66-31.31Q44.49,39,43.17,35c-.88-2.62-2.32-3.94-4.33-3.94q-3.68,0-7.16,5.8-6.32,10.56-10.36,14c-3.21,2.69-6.31,4-9.33,4A10.19,10.19,0,0,1,3.61,50.7,16.79,16.79,0,0,1,.31,40,43.94,43.94,0,0,1,3,25.86,59.31,59.31,0,0,1,10,11.62Q17.17,1.06,24.14,1.07a17.67,17.67,0,0,1,4.34.62c3.39.76,6.17,1.27,8.34,1.55A59.12,59.12,0,0,0,44.31,3.65Z" transform="translate(-0.31 -0.44)" style="fill:#fff"/><path d="M163.19,145H129.3q-4.49,0-4.48-2.79a4.23,4.23,0,0,1,1-2.65q.95-1.23,6.12-6.59,9.6-9.94,14.23-18.54a16.39,16.39,0,0,0,2.39-7.55,6.26,6.26,0,0,0-1.44-4.34,5,5,0,0,0-3.88-1.62,7.11,7.11,0,0,0-3.49.69,43.83,43.83,0,0,0-5.27,4.45,4.16,4.16,0,0,1-2.89,1,6,6,0,0,1-4.31-2,6.09,6.09,0,0,1-2-4.34,9.07,9.07,0,0,1,1.79-4.84,23.19,23.19,0,0,1,4.73-5.12,37.59,37.59,0,0,1,23.84-8.47q9.94,0,16.47,4.21a13.76,13.76,0,0,1,4.73,5.36A15.34,15.34,0,0,1,178.62,99q0,9.58-12,20.79c-2.86,2.62-4.28,4.59-4.28,5.9a3.26,3.26,0,0,0,1.29,2.6,4.78,4.78,0,0,0,3.14,1.07,10.39,10.39,0,0,0,7.81-3.72,18,18,0,0,1,2.32-2.24,2.73,2.73,0,0,1,1.56-.39q4.38,0,4.38,8.21a25.83,25.83,0,0,1-1.42,8.31,23.62,23.62,0,0,1-3.85,7.27q-2.59,3.28-5.68,3.28a3.2,3.2,0,0,1-2-.57,8,8,0,0,1-1.69-2.16,4.91,4.91,0,0,0-1.77-2A8,8,0,0,0,163.19,145Z" transform="translate(-0.31 -0.44)" style="fill:#fff"/></svg>