<svg xmlns="http://www.w3.org/2000/svg" viewBox="0 0 182.3 155.83"><path d="M44.31,3.65H94a55.68,55.68,0,0,0,14.61-2.38,18.06,18.06,0,0,1,5-.83q7.64,0,14.84,12.43a50.34,50.34,0,0,1,7.2,25.56q0,9-5,13.15a13.77,13.77,0,0,1-9,3.11,13.13,13.13,0,0,1-8.67-3.06q-3.67-3-7.25-10.09-3.12-6.42-4.9-8.38a5.67,5.67,0,0,0-4.34-2,5.14,5.14,0,0,0-5,3.21Q89.91,37.61,89.9,45v58q0,8.91,1.7,12.94a12,12,0,0,0,6.4,6.22q5.1,2.37,6.93,4.5a8.65,8.65,0,0,1,1.84,5.85q0,7.45-9.19,11.07t-28.22,3.63q-23.36,0-34.66-4.25-9.53-3.51-9.52-11.38a7.66,7.66,0,0,1,3.39-6.63,60.34,60.34,0,0,1,6.69-2.48,7.56,7.56,0,0,0,5-4.35q1.36-3.21,2.21-12.32.75-8.07,1.41-26.14t.66-31.31Q44.49,39,43.17,35c-.88-2.62-2.32-3.94-4.33-3.94q-3.68,0-7.16,5.8-6.32,10.56-10.36,14c-3.21,2.69-6.31,4-9.33,4A10.19,10.19,0,0,1,3.61,50.7,16.79,16.79,0,0,1,.31,40,43.94,43.94,0,0,1,3,25.86,59.31,59.31,0,0,1,10,11.62Q17.17,1.06,24.14,1.07a17.67,17.67,0,0,1,4.34.62c3.39.76,6.17,1.27,8.34,1.55A59.12,59.12,0,0,0,44.31,3.65Z" transform="translate(-0.31 -0.44)" style="fill:#fff"/><path d="M150.1,82.23a36.3,36.3,0,0,1,17.08,3.88,12.14,12.14,0,0,1,4.65,4.4,11.45,11.45,0,0,1,1.72,6q0,5.91-5.63,10.83c-1.06,1-1.59,1.7-1.59,2.24,0,1.06.95,1.79,2.84,2.19q13.44,2.73,13.43,16.41a25.12,25.12,0,0,1-5.47,15.69Q172,150.75,161.85,154a52.87,52.87,0,0,1-16,2.29,44.73,44.73,0,0,1-17.52-3.11c-3.08-1.32-4.63-3.23-4.63-5.75a5.47,5.47,0,0,1,1.57-4,5.12,5.12,0,0,1,3.81-1.62,42.87,42.87,0,0,1,6.72,1.37,20.35,20.35,0,0,0,5.13.49q6,0,9.5-3a9.56,9.56,0,0,0,3.73-7.39,8.05,8.05,0,0,0-2.88-6.37,11,11,0,0,0-7.42-2.49,16.24,16.24,0,0,0-5.07.72,6.85,6.85,0,0,1-1.95.43c-.86,0-1.75-1-2.66-2.9a13.18,13.18,0,0,1-1.37-5.63,2.08,2.08,0,0,1,.65-1.78,26.21,26.21,0,0,1,4.13-1.77,15.35,15.35,0,0,0,6-4.38,7.85,7.85,0,0,0,2.19-5.3,7.38,7.38,0,0,0-2.24-5.39,7.28,7.28,0,0,0-5.37-2.27,9.18,9.18,0,0,0-3.21.49,39.47,39.47,0,0,0-4.85,2.57,3.69,3.69,0,0,1-1.65.6c-.83,0-1.62-.63-2.36-1.91a7.83,7.83,0,0,1-1.12-4q0-3.72,6-7a36.4,36.4,0,0,1,9-3.36A42.33,42.33,0,0,1,150.1,82.23Z" transform="translate(-0.31 -0.44)" style="fill:#fff"/></svg>